# Blender 3.6.0
# www.blender.org
mtllib 015_all.mtl
o 01
v 1.876901 -41.078026 -16.650866
v -32.202362 -18.164410 5.149768
v -44.352921 -1.304899 -19.733898
v -21.544979 -29.282665 13.186032
v 22.644051 17.165882 -12.093794
v 17.651184 27.490667 1.119121
v 26.260733 9.686918 2.005707
v 9.124585 45.122887 -5.280303
v -19.410442 -25.717167 17.928457
v 27.428213 -14.726355 13.862141
v -23.427593 -5.697859 23.460325
v -16.207111 46.222008 -20.315884
v -15.455832 32.059078 -30.530247
v -21.466370 42.744690 -21.089615
v -0.256215 52.821018 -1.942266
v -27.620405 32.059078 -23.762259
v -19.417561 37.244389 24.178469
v -18.524374 37.898766 23.891216
v -22.120880 31.555031 26.675922
v -20.349413 23.467630 30.226042
v -10.307746 34.095978 25.560524
v -9.519400 25.753416 29.222652
v -13.267958 41.256180 22.417416
v 8.010555 -10.795393 -36.644661
v 12.683518 -16.514091 -32.901073
v 9.994088 -19.930126 -34.717083
v 3.427519 -14.527854 -34.991505
vn -0.6314 -0.7494 -0.1994
vn 0.9003 0.4353 -0.0000
vn 0.2381 -0.8248 0.5129
vn -0.7573 -0.3107 0.5744
vn -0.2520 0.5572 -0.7912
vn 0.5241 0.4323 -0.7338
vn 0.4472 0.5387 -0.7140
vn 0.3790 0.7160 -0.5862
vn -0.4816 0.1370 -0.8656
vn -0.4351 0.4462 -0.7820
vn -0.5599 0.8191 0.1249
vn -0.9002 -0.0060 0.4355
vn 0.6617 0.3529 0.6615
vn 0.6298 0.5155 0.5811
vn -0.5065 0.8518 0.1338
vn 0.1392 -0.2377 0.9613
vn -0.0000 0.4019 0.9157
vn -0.0000 0.4020 0.9156
vn -0.8844 0.4557 0.1010
vn -0.8808 0.4627 0.1007
vn -0.8728 0.4782 0.0976
vn 0.5205 0.3931 -0.7580
vn 0.7403 0.1811 -0.6475
vn 0.5940 -0.0406 -0.8034
vn -0.1540 -0.2359 -0.9595
vn 0.8207 -0.5191 -0.2389
vn 0.9502 -0.0982 -0.2958
vn -0.3865 -0.5088 -0.7693
vn -0.3130 -0.0360 -0.9491
vt 0.561881 0.533202
vt 0.387041 0.297788
vt 0.437908 0.181889
vt 0.390227 0.385947
vt 0.279687 0.708760
vt 0.368849 0.698329
vt 0.339016 0.795677
vt 0.369490 0.583407
vt 0.113059 0.583407
vt 0.309870 0.465613
vt 0.315564 0.495608
vt 0.000000 0.358062
vt 0.387041 0.450077
vt 0.360375 0.341567
vt 0.742592 0.000000
vt 0.729749 0.085572
vt 0.704764 0.004522
vt 1.000000 0.075734
vt 0.978558 0.272384
vt 0.742592 0.092757
vt 0.813354 0.004464
vt 0.985916 0.000000
vt 0.644626 0.047301
vt 0.447482 0.656570
vt 0.759844 0.651968
vt 0.758712 0.690990
vt 0.450576 0.650122
vt 0.421912 0.690193
vt 0.390188 0.858795
vt 0.387041 0.713099
vt 0.680954 0.979388
vt 0.493097 0.970779
vt 0.308587 0.085871
vt 0.300540 0.130422
vt 0.086414 0.130608
vt 0.014552 0.228083
vt 0.330822 0.049915
vt 0.224506 0.000000
vt 0.151056 0.041499
vt 0.466628 0.614052
vt 0.650055 0.533202
vt 0.372479 0.153666
vt 0.387041 0.111483
vt 0.370775 0.077862
vt 0.364995 0.073413
vt 0.759844 0.766859
vt 0.742592 0.397449
vt 0.770846 0.436894
vt 0.014712 0.773386
vt 0.028813 0.816338
vt 0.000000 0.828160
vt 0.742592 0.393113
vt 0.720111 0.448405
vt 0.701303 0.399791
vt 0.000000 1.000000
vt 0.322711 0.964357
s 0
usemtl マテリアル.001
f 1/1/1 2/2/1 3/3/1
f 2/2/1 1/1/1 4/4/1
f 5/5/2 6/6/2 7/7/2
f 6/6/2 5/5/2 8/8/2
f 1/9/3 9/10/3 4/11/3
f 9/10/3 1/9/3 10/12/3
f 2/13/4 9/10/4 11/14/4
f 9/10/4 2/13/4 4/11/4
f 12/15/5 13/16/5 14/17/5
f 8/18/6 5/19/6 13/20/6
f 12/21/7 8/18/7 13/20/7
f 8/18/8 12/21/8 15/22/8
f 13/16/9 3/3/9 16/23/9
f 14/17/10 13/16/10 16/23/10
f 17/24/11 12/25/11 14/26/11
f 12/25/11 17/24/11 18/27/11
f 19/28/12 11/29/12 20/30/12
f 11/29/12 19/28/12 3/31/12
f 11/29/12 3/31/12 2/32/12
f 10/12/13 21/33/13 22/34/13
f 21/33/13 10/12/13 6/35/13
f 6/35/13 10/12/13 7/36/13
f 6/35/14 23/37/14 21/33/14
f 23/37/14 6/35/14 15/38/14
f 15/38/14 6/35/14 8/39/14
f 23/40/15 12/25/15 18/27/15
f 12/25/15 23/40/15 15/41/15
f 10/12/16 11/14/16 9/10/16
f 11/14/16 10/12/16 22/34/16
f 11/14/16 22/34/16 20/42/16
f 22/34/17 19/43/17 20/42/17
f 19/43/17 22/34/17 21/33/17
f 19/43/17 21/33/17 17/44/17
f 17/44/17 21/33/17 23/37/17
f 17/44/18 23/37/18 18/45/18
f 16/46/19 3/31/19 19/28/19
f 16/46/20 19/28/20 17/24/20
f 16/46/21 17/24/21 14/26/21
f 13/20/22 5/19/22 24/47/22
f 24/47/23 5/19/23 25/48/23
f 24/49/24 25/50/24 26/51/24
f 24/52/25 26/53/25 27/54/25
f 1/55/26 25/50/26 10/56/26
f 25/50/26 1/55/26 26/51/26
f 25/50/27 7/7/27 10/56/27
f 7/7/27 25/50/27 5/5/27
f 3/3/28 26/53/28 1/1/28
f 26/53/28 3/3/28 27/54/28
f 3/3/29 24/52/29 27/54/29
f 24/52/29 3/3/29 13/16/29
o 02
v 17.173195 -49.348022 -7.379363
v 11.386403 43.081066 -1.047613
v 16.772919 -33.949696 15.633121
v 6.504663 38.334415 -16.919115
v 9.561165 -47.674408 10.569658
v 0.004787 -45.573303 -3.527650
v -2.724290 -44.973278 7.217464
v 7.584470 -33.949696 15.633121
v 16.772919 41.218639 4.420573
v -9.489477 41.218639 4.420573
v -17.952269 17.155712 0.064568
v -5.604609 32.568111 1.658424
v -14.818584 21.067192 -11.336811
v 3.273000 -32.182713 -7.379364
v -9.138630 -8.935040 7.583806
v -5.565625 -31.440989 13.316036
v -11.742556 -16.689789 9.054239
v -6.648803 -37.436001 9.974648
v -11.084303 -27.062897 9.514442
v -11.762966 -16.538509 9.018772
v -6.023338 -22.510319 2.759168
vn 0.7795 0.3401 0.5260
vn 0.1451 -0.9822 0.1191
vn 0.7307 -0.0364 -0.6817
vn 0.3809 0.9150 0.1329
vn 0.7650 0.5163 -0.3850
vn 0.5715 0.6188 0.5389
vn 0.6178 0.7190 -0.3184
vn 0.1244 0.1318 -0.9834
vn -0.8201 -0.4997 -0.2788
vn 0.5052 -0.5992 -0.6211
vn 0.1484 0.9367 0.3173
vn -0.0273 0.9991 0.0333
vn 0.0294 0.6778 0.7346
vn 0.1484 0.9366 0.3173
vn 0.4669 0.1386 0.8734
vn 0.6407 0.1756 -0.7474
vn 0.4508 0.1131 -0.8854
vn 0.9819 0.0483 -0.1831
vn 0.3808 0.9150 0.1329
vn 0.7546 0.4791 -0.4485
vn 0.8967 0.0946 -0.4325
vn 0.5051 -0.5992 -0.6211
vn -0.0274 0.9991 0.0333
vn 0.6407 0.1756 -0.7475
vn 0.4187 0.2824 0.8631
vn 0.1485 0.9366 0.3173
vn 0.1484 0.9366 0.3174
vn 0.8054 0.1819 0.5642
vt -0.000000 0.823059
vt 0.143243 -0.000000
vt 0.222974 0.711496
vt 0.000000 0.013178
vt 0.399633 0.978570
vt 0.483550 0.873703
vt 0.473676 0.974730
vt 0.399633 0.803378
vt 0.172790 0.810588
vt 0.549749 0.670641
vt 0.633636 0.009060
vt 0.633636 0.673811
vt 0.393869 0.000000
vt 0.699279 0.000000
vt 0.699279 0.725881
vt 0.633636 0.030442
vt 0.852697 0.670921
vt 0.743320 0.988099
vt 0.699279 0.814640
vt 0.839076 0.928091
vt 0.805028 0.034064
vt 0.699279 0.517348
vt 0.699279 0.630711
vt 0.633636 0.967431
vt 0.633636 0.725881
vt 0.686767 0.917888
vt 0.483550 0.803378
vt 0.545620 0.907260
vt 0.483550 0.952716
vt 0.559950 0.803378
vt 0.444534 0.779682
vt 0.296547 0.650021
vt 0.317927 0.774605
vt 0.222974 0.815183
vt 0.392308 0.450141
vt 0.427549 0.646837
vt 0.368881 0.517350
vt 0.222974 0.000000
vt 0.368881 0.149475
vt 0.412987 0.705842
vt 0.368881 0.803378
vt 0.399633 0.950738
vt 0.368881 1.000000
vt 0.990153 0.534534
vt 0.990153 0.728118
vt 0.973513 0.626763
vt 0.998737 0.000000
vt 0.998737 0.447723
vt 0.964770 0.083489
vt 0.935206 0.534534
vt 0.973513 0.615388
vt 0.869158 0.763096
vt 0.869158 0.000000
vt 0.964770 0.217955
vt 0.869158 0.461963
vt 0.882801 0.533122
vt 0.882513 0.534534
vt 0.973513 0.983045
vt 0.833698 0.625320
vt 0.868992 0.448099
vt 0.865300 0.550842
vt 0.732692 0.630711
vt 0.804156 0.415641
vt 0.868907 0.352847
vt 0.869158 0.354258
s 1
usemtl マテリアル
f 28/57/30 29/58/31 30/59/32
f 31/60/33 29/58/31 28/57/30
f 32/61/34 33/62/35 34/63/36
f 33/62/35 32/61/34 28/64/30
f 28/57/30 30/59/32 32/65/34
f 35/66/37 36/67/38 30/68/32
f 36/67/38 35/66/37 37/69/39
f 29/70/31 30/71/32 36/72/38
f 31/73/33 38/74/40 39/75/41
f 31/73/33 40/76/42 38/74/40
f 40/70/42 38/77/43 41/78/44
f 29/79/31 31/73/33 39/75/41
f 36/80/38 37/81/39 29/82/31
f 29/83/31 37/84/39 39/85/41
f 35/66/37 32/86/34 34/87/36
f 35/66/37 30/68/32 32/86/34
f 41/88/44 33/89/35 28/90/30
f 37/69/39 35/66/37 42/91/45
f 43/92/46 42/91/45 35/66/37
f 42/91/45 43/92/46 44/93/47
f 31/94/48 41/88/44 28/90/30
f 41/88/44 31/94/48 40/95/42
f 45/96/49 35/66/37 34/87/36
f 35/66/37 45/96/49 43/92/46
f 44/97/47 43/98/46 45/99/49
f 44/100/47 45/101/49 46/102/50
f 37/103/39 42/104/45 39/105/41
f 37/106/51 39/107/52 38/108/43
f 37/109/51 38/110/43 42/111/45
f 42/111/53 47/112/54 44/113/47
f 47/112/54 42/111/53 38/110/55
f 39/107/41 42/114/45 38/108/56
f 34/115/36 46/116/50 45/117/49
f 46/116/50 34/115/36 33/118/35
f 48/119/57 38/77/43 47/120/54
f 38/77/43 48/119/57 41/78/44
f 41/78/44 46/116/50 33/118/35
f 41/78/44 48/119/57 46/116/50
f 48/119/57 47/120/54 44/121/47
f 48/119/57 44/121/47 46/116/50
o 03
v 17.173195 -49.348022 -7.379363
v 11.386403 43.081066 -1.047613
v 16.772919 -33.949696 15.633121
v 6.504663 38.334415 -16.919115
v 9.561165 -47.674408 10.569658
v 0.004787 -45.573303 -3.527650
v -2.724290 -44.973278 7.217464
v 7.584470 -33.949696 15.633121
v 16.772919 41.218639 4.420573
v -9.489477 41.218639 4.420573
v -17.952269 17.155712 0.064568
v -5.604609 32.568111 1.658424
v -14.818584 21.067192 -11.336811
v 3.273000 -32.182713 -7.379364
v -9.138630 -8.935040 7.583806
v -5.565625 -31.440989 13.316036
v -11.742556 -16.689789 9.054239
v -6.648803 -37.436001 9.974648
v -11.084303 -27.062897 9.514442
v -11.762966 -16.538509 9.018772
v -6.023338 -22.510319 2.759168
vn 0.9976 0.0642 -0.0256
vn 0.9456 0.0808 -0.3150
vn 0.2147 0.9767 -0.0000
vn 0.7584 -0.5356 0.3716
vn -0.0000 -0.1475 -0.9891
vn -0.6899 0.1068 0.7160
vn -0.7331 0.6169 -0.2864
vn -0.6098 0.7860 0.1021
vn 0.8778 0.3244 0.3526
vn -0.5342 0.8409 -0.0872
vn -0.0000 -0.9466 -0.3224
vn 0.2644 -0.1836 0.9468
vn 0.3192 0.3681 -0.8733
vn -0.0000 0.3461 -0.9382
vn 0.2575 0.2085 0.9435
vn 0.3636 -0.0561 -0.9298
vn 0.1271 -0.2258 -0.9658
vn 0.1549 0.1255 0.9799
vn 0.2366 0.4401 -0.8662
vn 0.8039 0.1721 -0.5694
vn -0.0000 -0.0443 -0.9990
vn 0.6533 0.0522 0.7553
vn -0.1655 0.2317 -0.9586
vn -0.5620 0.0482 0.8258
vn -0.0926 0.2154 0.9721
vn -0.1403 0.2302 0.9630
vn 0.3209 -0.1606 -0.9334
vn 0.8969 0.3926 0.2035
vn 0.8966 0.3921 0.2058
vn 0.8258 0.2815 0.4886
vn 0.7620 0.0003 0.6475
vn 0.7713 0.0795 0.6314
vn 0.8174 0.2337 0.5265
vn 0.7723 0.0770 0.6305
vt -0.000000 0.823059
vt 0.143243 -0.000000
vt 0.222974 0.711496
vt 0.000000 0.013178
vt 0.399633 0.978570
vt 0.483550 0.873703
vt 0.473676 0.974730
vt 0.399633 0.803378
vt 0.172790 0.810588
vt 0.549749 0.670641
vt 0.633636 0.009060
vt 0.633636 0.673811
vt 0.393869 0.000000
vt 0.699279 0.000000
vt 0.699279 0.725881
vt 0.633636 0.030442
vt 0.852697 0.670921
vt 0.743320 0.988099
vt 0.699279 0.814640
vt 0.839076 0.928091
vt 0.805028 0.034064
vt 0.699279 0.517348
vt 0.699279 0.630711
vt 0.633636 0.967431
vt 0.633636 0.725881
vt 0.686767 0.917888
vt 0.483550 0.803378
vt 0.545620 0.907260
vt 0.483550 0.952716
vt 0.559950 0.803378
vt 0.444534 0.779682
vt 0.296547 0.650021
vt 0.317927 0.774605
vt 0.222974 0.815183
vt 0.392308 0.450141
vt 0.427549 0.646837
vt 0.368881 0.517350
vt 0.222974 0.000000
vt 0.368881 0.149475
vt 0.412987 0.705842
vt 0.368881 0.803378
vt 0.399633 0.950738
vt 0.368881 1.000000
vt 0.990153 0.534534
vt 0.990153 0.728118
vt 0.973513 0.626763
vt 0.998737 0.000000
vt 0.998737 0.447723
vt 0.964770 0.083489
vt 0.935206 0.534534
vt 0.973513 0.615388
vt 0.869158 0.763096
vt 0.869158 0.000000
vt 0.964770 0.217955
vt 0.869158 0.461963
vt 0.882801 0.533122
vt 0.882513 0.534534
vt 0.973513 0.983045
vt 0.833698 0.625320
vt 0.868992 0.448099
vt 0.865300 0.550842
vt 0.732692 0.630711
vt 0.804156 0.415641
vt 0.868907 0.352847
vt 0.869158 0.354258
s 0
usemtl マテリアル.002
f 49/122/58 50/123/58 51/124/58
f 52/125/59 50/123/59 49/122/59
f 53/126/60 54/127/60 55/128/60
f 54/127/60 53/126/60 49/129/60
f 49/122/61 51/124/61 53/130/61
f 56/131/62 57/132/62 51/133/62
f 57/132/62 56/131/62 58/134/62
f 50/135/63 51/136/63 57/137/63
f 52/138/64 59/139/64 60/140/64
f 52/138/65 61/141/65 59/139/65
f 61/135/66 59/142/66 62/143/66
f 50/144/67 52/138/67 60/140/67
f 57/145/68 58/146/68 50/147/68
f 50/148/69 58/149/69 60/150/69
f 56/131/70 53/151/70 55/152/70
f 56/131/71 51/133/71 53/151/71
f 62/153/72 54/154/72 49/155/72
f 58/134/73 56/131/73 63/156/73
f 64/157/74 63/156/74 56/131/74
f 63/156/74 64/157/74 65/158/74
f 52/159/75 62/153/75 49/155/75
f 62/153/75 52/159/75 61/160/75
f 66/161/76 56/131/76 55/152/76
f 56/131/76 66/161/76 64/157/76
f 65/162/77 64/163/77 66/164/77
f 65/165/78 66/166/78 67/167/78
f 58/168/79 63/169/79 60/170/79
f 58/171/80 60/172/80 59/173/80
f 58/174/81 59/175/81 63/176/81
f 63/176/82 68/177/82 65/178/82
f 68/177/83 63/176/83 59/175/83
f 60/172/84 63/179/84 59/173/84
f 55/180/85 67/181/85 66/182/85
f 67/181/86 55/180/86 54/183/86
f 69/184/87 59/142/87 68/185/87
f 59/142/87 69/184/87 62/143/87
f 62/143/88 67/181/88 54/183/88
f 62/143/89 69/184/89 67/181/89
f 69/184/90 68/185/90 65/186/90
f 69/184/91 65/186/91 67/181/91
o 05
v -5.493257 49.781563 -14.663812
v -21.433043 1.401602 -14.435703
v -12.365258 41.708450 19.964243
v 18.521170 -15.153379 -17.563786
v 21.682575 -13.041023 14.721428
v 9.117260 -41.397655 -6.555322
v -14.646689 -26.455246 10.455619
v 7.067204 61.240250 0.189449
v 23.327106 30.393219 2.954228
vn -0.9436 0.3104 -0.1149
vn 0.9299 -0.3615 -0.0674
vn -0.0660 -0.1357 0.9886
vn 0.1450 -0.6341 0.7595
vn -0.6839 -0.5716 -0.4533
vn -0.0704 0.0185 -0.9973
vn -0.6930 0.7203 0.0304
vn -0.9659 -0.0038 0.2591
vn -0.2034 -0.3158 -0.9267
vn 0.4746 0.2134 0.8539
vn 0.9937 -0.0629 -0.0932
vn 0.4894 0.3303 0.8071
vn 0.6262 0.2643 -0.7335
vt 0.833824 0.149132
vt 0.792653 0.488689
vt 0.658261 0.121942
vt 0.322646 0.430428
vt 0.477430 0.532727
vt 0.343070 0.654730
vt 0.322646 0.126721
vt 0.322646 0.620585
vt 0.166176 0.501819
vt 0.222604 0.732426
vt 0.477430 0.373138
vt 0.649680 0.545555
vt 0.527703 0.570867
vt 0.477430 -0.000000
vt 0.658261 0.320827
vt 0.776496 0.000000
vt 0.658261 0.565865
vt 0.171566 0.206602
vt 0.467071 0.199090
vt 0.249039 -0.000000
vt 0.390225 0.033529
vt 0.477430 -0.000000
s 0
usemtl マテリアル.004
f 70/187/92 71/188/92 72/189/92
f 73/190/93 74/191/93 75/192/93
f 72/193/94 76/194/94 74/195/94
f 74/195/95 76/194/95 75/196/95
f 71/197/96 75/198/96 76/199/96
f 70/200/97 73/201/97 71/197/97
f 70/187/98 72/189/98 77/202/98
f 71/188/99 76/203/99 72/189/99
f 71/197/100 73/201/100 75/198/100
f 72/193/101 74/195/101 78/204/101
f 73/190/102 78/205/102 74/191/102
f 77/206/103 72/193/103 78/204/103
f 70/207/104 78/205/104 73/190/104
f 78/205/104 70/207/104 77/208/104
